# xmcd
#
# Track frame offsets:
#        150
#        26617
#        51817
#        74917
#        93070
#        113170
#        137415
#        157595
#        175770
#        198607
#        225665
#        246262
#        273717
#        296005
#        319500
#
# Disc length: 4431 seconds
#
# Revision: 0
# Processed by: cddbd v1.5.1PL0 Copyright (c) Steve Scherf et al.
# Submitted via: ExactAudioCopy v0.95b2
#
DISCID=d1114d0f
DTITLE=Earl Klugh - The Best of Earl Klugh
DYEAR=1900
DGENRE=Fusion
TTITLE0=Midnight in San Juan
TTITLE1=Brazilian Stomp
TTITLE2=Across the sand
TTITLE3=Maybe Tonight
TTITLE4=Last Song
TTITLE5=Rainbow Man
TTITLE6=Movin' on
TTITLE7=Traveler
TTITLE8=Doin' it
TTITLE9=For the love of You
TTITLE10=One Night
TTITLE11=Kissin' on the Beach
TTITLE12=Master of Suspense
TTITLE13=Jo Ann's song
TTITLE14=One Note Samba
EXTD=
EXTT0=
EXTT1=
EXTT2=
EXTT3=
EXTT4=
EXTT5=
EXTT6=
EXTT7=
EXTT8=
EXTT9=
EXTT10=
EXTT11=
EXTT12=
EXTT13=
EXTT14=
PLAYORDER=
